<?xml version="1.0" encoding="utf-8"?>
<!-- Generator: Adobe Illustrator 25.3.1, SVG Export Plug-In . SVG Version: 6.00 Build 0)  -->
<svg version="1.1" id="Calque_1" xmlns="http://www.w3.org/2000/svg" xmlns:xlink="http://www.w3.org/1999/xlink" x="0px" y="0px"
	 viewBox="0 0 256 250" style="enable-background:new 0 0 256 250;" xml:space="preserve">
<g>
	<path d="M128,0C57.3,0,0,57.3,0,128c0,56.6,36.7,104.5,87.5,121.5c6.4,1.2,8.7-2.8,8.7-6.2c0-3.1-0.1-13.1-0.2-23.8
		c-35.5,7.7-43-15.1-43-15.1c-5.8-14.8-14.2-18.7-14.2-18.7c-11.6-7.9,0.9-7.8,0.9-7.8c12.9,0.9,19.6,13.2,19.6,13.2
		c11.4,19.6,29.9,13.9,37.2,10.6c1.1-8.3,4.5-13.9,8.1-17.1c-28.4-3.2-58.3-14.2-58.3-63.3c0-14,5-25.4,13.2-34.4
		c-1.3-3.2-5.7-16.2,1.2-33.9c0,0,10.7-3.4,35.2,13.1c10.2-2.8,21.2-4.3,32-4.3c10.9,0,21.8,1.5,32.1,4.3
		C184.4,49.5,195.2,53,195.2,53c7,17.6,2.6,30.7,1.3,33.9c8.2,9,13.2,20.4,13.2,34.4c0,49.2-29.9,60-58.4,63.2
		c4.6,4,8.7,11.8,8.7,23.7c0,17.1-0.1,30.9-0.1,35.1c0,3.4,2.3,7.4,8.8,6.1C219.4,232.5,256,184.5,256,128C256,57.3,198.7,0,128,0z"
		/>
</g>
</svg>
